<?xml version="1.0" encoding="utf-8"?>
<!-- Generator: Adobe Illustrator 16.0.0, SVG Export Plug-In . SVG Version: 6.00 Build 0)  -->
<!DOCTYPE svg PUBLIC "-//W3C//DTD SVG 1.1//EN" "http://www.w3.org/Graphics/SVG/1.1/DTD/svg11.dtd">
<svg version="1.1" xmlns="http://www.w3.org/2000/svg" xmlns:xlink="http://www.w3.org/1999/xlink" x="0px" y="0px" width="1080px"
	 height="1080px" viewBox="0 0 1080 1080" enable-background="new 0 0 1080 1080" xml:space="preserve">
<g id="white_background" display="none">
	<rect y="400.5" display="inline" fill="#FFFFFF" width="1080" height="266.848"/>
</g>
<g id="Purple_logo" display="none">
	<rect display="inline" fill="#662467" width="1080" height="1080"/>
</g>
<g id="Main_logo">
	<g>
		<g>
			<g>
				<g id="XMLID_9_">
					<g>
						<path fill="#92278D" d="M341.592,511.886c-1.471-4.979-1.627-10.015-0.438-14.175c1.145-4.043,3.434-6.756,6.43-7.643
							c0.682-0.205,1.408-0.307,2.133-0.307c5.914,0,12.109,6.464,14.75,15.368c1.471,4.983,1.627,10.015,0.438,14.18
							c-1.155,4.043-3.434,6.756-6.425,7.638c-0.697,0.205-1.408,0.307-2.144,0.307C350.428,527.253,344.222,520.79,341.592,511.886
							z"/>
						<path fill="#92278D" d="M356.336,528.715c-6.542,0-13.332-6.902-16.147-16.416c-1.549-5.241-1.709-10.565-0.443-14.988
							c1.291-4.544,3.926-7.613,7.423-8.641c0.818-0.244,1.675-0.37,2.547-0.37c6.547,0,13.337,6.907,16.143,16.415
							c1.549,5.246,1.709,10.57,0.453,14.993c-1.301,4.54-3.936,7.608-7.418,8.641C358.071,528.598,357.204,528.715,356.336,528.715
							z M341.154,497.711c-1.188,4.16-1.033,9.196,0.438,14.175c2.63,8.904,8.836,15.368,14.744,15.368
							c0.736,0,1.447-0.102,2.144-0.307c2.991-0.882,5.27-3.595,6.425-7.638c1.188-4.165,1.033-9.197-0.438-14.18
							c-2.64-8.904-8.836-15.368-14.75-15.368c-0.726,0-1.452,0.103-2.133,0.307C344.588,490.955,342.298,493.668,341.154,497.711z"
							/>
						<path fill="#92278D" d="M331.066,533.747c1.149-4.043,3.434-6.756,6.425-7.638c0.687-0.205,1.408-0.307,2.138-0.307
							c5.918,0,12.114,6.464,14.745,15.368c1.476,4.979,1.627,10.015,0.448,14.175c-1.155,4.043-3.439,6.756-6.43,7.643
							c-0.697,0.204-1.408,0.307-2.144,0.307c-5.908,0-12.109-6.464-14.739-15.368C330.028,542.943,329.877,537.911,331.066,533.747
							z"/>
						<path fill="#662367" d="M321.441,558.102c10.37,4.126,17.053,11.899,14.9,17.326c-1.208,3.044-5.188,4.856-10.639,4.856
							c-3.809,0-7.988-0.862-12.089-2.494c-10.38-4.126-17.068-11.895-14.905-17.326c1.208-3.039,5.188-4.856,10.638-4.856
							C313.15,555.607,317.33,556.47,321.441,558.102z"/>
						<path fill="#92278D" d="M329.658,533.347c1.291-4.54,3.926-7.608,7.418-8.641c0.828-0.244,1.686-0.365,2.552-0.365
							c6.547,0,13.332,6.902,16.143,16.415c1.554,5.241,1.715,10.565,0.453,14.988c-1.301,4.544-3.936,7.613-7.418,8.646
							c-0.823,0.239-1.686,0.365-2.558,0.365c-6.546,0-13.332-6.901-16.142-16.415C328.552,543.094,328.392,537.77,329.658,533.347z
							 M337.491,526.109c-2.991,0.881-5.275,3.595-6.425,7.638c-1.188,4.165-1.038,9.197,0.443,14.179
							c2.63,8.904,8.831,15.368,14.739,15.368c0.736,0,1.447-0.103,2.144-0.307c2.991-0.887,5.275-3.6,6.43-7.643
							c1.179-4.16,1.028-9.196-0.448-14.175c-2.63-8.904-8.826-15.368-14.745-15.368
							C338.898,525.802,338.177,525.904,337.491,526.109z"/>
						<path fill="#92278D" d="M313.019,484.983c-2.635-4.477-4.014-9.323-3.863-13.644c0.131-4.204,1.69-7.389,4.379-8.972
							c1.198-0.707,2.572-1.067,4.082-1.067c5.465,0,11.875,4.657,15.947,11.583c2.635,4.477,4.009,9.323,3.868,13.649
							c-0.136,4.204-1.695,7.389-4.389,8.972c-1.198,0.706-2.562,1.062-4.077,1.062
							C323.506,496.566,317.096,491.915,313.019,484.983z"/>
						<path fill="#92278D" d="M311.762,485.724c-2.776-4.71-4.218-9.84-4.072-14.433c0.156-4.72,1.968-8.339,5.11-10.185
							c1.427-0.838,3.044-1.267,4.817-1.267c6.055,0,12.806,4.832,17.209,12.304c2.771,4.715,4.218,9.839,4.063,14.438
							c-0.146,4.72-1.963,8.339-5.105,10.186c-1.422,0.837-3.044,1.261-4.817,1.261C322.912,498.027,316.156,493.2,311.762,485.724z
							 M317.617,461.3c-1.51,0-2.884,0.36-4.082,1.067c-2.689,1.583-4.248,4.769-4.379,8.972c-0.151,4.321,1.228,9.167,3.863,13.644
							c4.077,6.932,10.487,11.583,15.947,11.583c1.515,0,2.879-0.356,4.077-1.062c2.694-1.583,4.252-4.769,4.389-8.972
							c0.141-4.326-1.232-9.172-3.868-13.649C329.493,465.957,323.083,461.3,317.617,461.3z"/>
						<path fill="#92278D" d="M302.181,503.78c1.193-4.033,3.502-6.722,6.508-7.575c0.667-0.19,1.354-0.287,2.065-0.287
							c5.933,0,12.109,6.527,14.662,15.519c2.903,10.2,0.112,19.957-6.206,21.759c-0.672,0.185-1.359,0.282-2.065,0.282
							c-5.938,0-12.109-6.527-14.667-15.519C301.056,512.967,300.953,507.93,302.181,503.78z"/>
						<path fill="#662367" d="M269.253,534c1.082-4.033,6.245-6.639,13.176-6.639c2.596,0,5.275,0.365,7.969,1.081
							c4.968,1.33,9.333,3.697,12.275,6.678c2.85,2.879,4.014,5.962,3.293,8.68c-1.086,4.033-6.25,6.64-13.176,6.64
							c-2.601,0-5.285-0.365-7.969-1.081C274.694,546.654,267.719,539.767,269.253,534z"/>
						<path fill="#92278D" d="M310.754,495.918c-0.711,0-1.398,0.097-2.065,0.287c-3.005,0.853-5.314,3.542-6.508,7.575
							c-1.228,4.15-1.125,9.187,0.297,14.179c2.557,8.992,8.729,15.519,14.667,15.519c0.707,0,1.393-0.097,2.065-0.282
							c6.317-1.802,9.108-11.559,6.206-21.759C322.863,502.445,316.687,495.918,310.754,495.918z M301.07,518.359
							c-1.496-5.256-1.593-10.584-0.292-14.993c1.345-4.53,4.009-7.57,7.506-8.568c0.799-0.224,1.627-0.341,2.47-0.341
							c6.576,0,13.336,6.975,16.064,16.581c3.122,10.974-0.112,21.544-7.209,23.561c-0.794,0.224-1.622,0.341-2.465,0.341
							C310.569,534.94,303.803,527.97,301.07,518.359z"/>
						<path fill="#662367" d="M284.494,567.717c10.38,4.126,17.063,11.899,14.905,17.326c-1.208,3.044-5.188,4.861-10.638,4.861
							c-3.804,0-7.983-0.862-12.095-2.499c-10.37-4.121-17.063-11.895-14.905-17.321c1.213-3.044,5.188-4.861,10.638-4.861
							C276.204,565.223,280.393,566.085,284.494,567.717z"/>
						<path fill="#662367" d="M313.067,579.149c-11.12-4.423-18.173-13.045-15.724-19.222c1.461-3.677,5.835-5.781,12.002-5.781
							c3.984,0,8.349,0.896,12.625,2.596c11.13,4.423,18.184,13.05,15.729,19.227c-1.466,3.672-5.831,5.776-11.998,5.776
							C321.713,581.745,317.344,580.849,313.067,579.149z M298.708,560.464c-2.163,5.432,4.525,13.2,14.905,17.326
							c4.101,1.632,8.28,2.494,12.089,2.494c5.451,0,9.431-1.813,10.639-4.856c2.153-5.427-4.53-13.2-14.9-17.326
							c-4.111-1.632-8.291-2.494-12.095-2.494C303.896,555.607,299.916,557.425,298.708,560.464z"/>
						<path fill="#AF3A95" d="M281.908,462.148c5.017-4.983,11.042-8.076,15.729-8.076c2.007,0,3.59,0.565,4.706,1.69
							c1.797,1.807,2.148,4.881,1.003,8.656c-1.198,3.936-3.873,8.096-7.536,11.729c-5.012,4.978-11.038,8.076-15.724,8.076
							c-2.007,0-3.59-0.57-4.7-1.69C271.552,478.67,274.479,469.527,281.908,462.148z"/>
						<path fill="#AF3A95" d="M296.842,477.18c-5.28,5.246-11.7,8.505-16.756,8.505c-2.377,0-4.359-0.736-5.738-2.124
							c-4.477-4.505-1.603-14.369,6.532-22.45c5.28-5.246,11.7-8.5,16.756-8.5c2.377,0,4.359,0.73,5.738,2.119
							c2.202,2.207,2.679,5.801,1.369,10.117C303.467,469.006,300.666,473.385,296.842,477.18z M280.086,484.223
							c4.686,0,10.711-3.098,15.724-8.076c3.663-3.634,6.337-7.793,7.536-11.729c1.145-3.775,0.794-6.849-1.003-8.656
							c-1.116-1.125-2.699-1.69-4.706-1.69c-4.686,0-10.711,3.093-15.729,8.076c-7.428,7.379-10.355,16.522-6.522,20.385
							C276.496,483.653,278.079,484.223,280.086,484.223z"/>
						<path fill="#AF3A95" d="M292.112,492.475c1.797,1.807,2.153,4.881,0.999,8.656c-1.198,3.936-3.867,8.101-7.521,11.729
							c-5.017,4.983-11.042,8.076-15.733,8.076c-2.007,0-3.585-0.57-4.706-1.69c-3.829-3.858-0.901-13.005,6.527-20.385
							c5.017-4.983,11.042-8.076,15.733-8.076C289.419,490.784,290.997,491.354,292.112,492.475z"/>
						<path fill="#662367" d="M266.896,549.139c2.318,3.195,2.991,6.216,1.89,8.51c-1.179,2.45-4.345,3.853-8.685,3.853
							c-3.912,0-8.427-1.135-12.704-3.195c-9.44-4.534-15.212-12.216-12.85-17.121c1.179-2.445,4.34-3.853,8.685-3.853
							c3.907,0,8.427,1.135,12.708,3.195C260.583,542.758,264.475,545.816,266.896,549.139z"/>
						<path fill="#662367" d="M307.374,544.18c-1.252,4.691-6.98,7.721-14.584,7.721c-2.723,0-5.533-0.38-8.349-1.13
							c-10.896-2.913-18.344-10.604-16.601-17.146c1.257-4.69,6.975-7.725,14.589-7.725c2.718,0,5.528,0.38,8.344,1.135
							c5.217,1.388,9.81,3.897,12.942,7.058C306.94,537.351,308.235,540.936,307.374,544.18z M292.79,550.439
							c6.927,0,12.09-2.606,13.176-6.64c0.721-2.718-0.443-5.801-3.293-8.68c-2.942-2.981-7.307-5.348-12.275-6.678
							c-2.694-0.716-5.373-1.081-7.969-1.081c-6.932,0-12.095,2.606-13.176,6.639c-1.534,5.767,5.441,12.654,15.568,15.358
							C287.504,550.074,290.188,550.439,292.79,550.439z"/>
						<path fill="#AF3A95" d="M294.514,501.559c-1.271,4.16-4.072,8.539-7.896,12.338c-5.285,5.241-11.705,8.5-16.761,8.5
							c-2.372,0-4.354-0.735-5.733-2.124c-4.477-4.506-1.607-14.365,6.527-22.451c5.285-5.241,11.7-8.5,16.761-8.5
							c2.372,0,4.354,0.73,5.733,2.119C295.342,493.653,295.824,497.243,294.514,501.559z M293.111,501.13
							c1.155-3.775,0.799-6.849-0.999-8.656c-1.115-1.12-2.693-1.69-4.7-1.69c-4.691,0-10.716,3.093-15.733,8.076
							c-7.428,7.38-10.356,16.527-6.527,20.385c1.121,1.12,2.699,1.69,4.706,1.69c4.691,0,10.716-3.093,15.733-8.076
							C289.244,509.231,291.913,505.066,293.111,501.13z"/>
						<path fill="#662367" d="M285.04,566.362c11.12,4.423,18.173,13.045,15.718,19.222c-1.456,3.672-5.835,5.781-11.997,5.781
							c-3.989,0-8.354-0.896-12.63-2.601c-11.13-4.423-18.184-13.045-15.729-19.222c1.466-3.672,5.835-5.781,11.997-5.781
							C276.394,563.762,280.763,564.663,285.04,566.362z M299.399,585.043c2.158-5.427-4.525-13.2-14.905-17.326
							c-4.101-1.632-8.291-2.494-12.095-2.494c-5.451,0-9.425,1.817-10.638,4.861c-2.158,5.427,4.535,13.2,14.905,17.321
							c4.111,1.637,8.291,2.499,12.095,2.499C294.212,589.904,298.191,588.087,299.399,585.043z"/>
						<path fill="#AF3A95" d="M255.336,503.931c1.797,1.807,2.153,4.886,0.999,8.661c-1.198,3.931-3.873,8.096-7.521,11.725
							c-5.017,4.983-11.042,8.076-15.724,8.076c-2.012,0-3.595-0.57-4.71-1.69c-3.833-3.858-0.901-13,6.532-20.385
							c5.017-4.983,11.042-8.076,15.724-8.076C252.643,502.241,254.226,502.811,255.336,503.931z"/>
						<path fill="#AF3A95" d="M239.165,492.942c-3.833-3.858-0.911-13.006,6.522-20.385c5.017-4.983,11.042-8.076,15.724-8.076
							c2.007,0,3.59,0.57,4.71,1.69c1.797,1.807,2.148,4.88,0.999,8.656c-1.198,3.936-3.877,8.1-7.531,11.729
							c-5.017,4.979-11.042,8.076-15.724,8.076C241.858,494.632,240.275,494.063,239.165,492.942z"/>
						<path fill="#AF3A95" d="M268.518,475.256c-1.271,4.16-4.077,8.539-7.901,12.338c-5.275,5.241-11.695,8.5-16.751,8.5
							c-2.377,0-4.364-0.735-5.738-2.124c-4.481-4.506-1.603-14.37,6.532-22.451c5.275-5.246,11.695-8.5,16.751-8.5
							c2.377,0,4.364,0.731,5.743,2.119C269.351,467.35,269.828,470.94,268.518,475.256z M259.589,486.556
							c3.653-3.629,6.333-7.793,7.531-11.729c1.149-3.775,0.799-6.849-0.999-8.656c-1.121-1.121-2.704-1.69-4.71-1.69
							c-4.681,0-10.707,3.093-15.724,8.076c-7.433,7.379-10.355,16.527-6.522,20.385c1.11,1.12,2.693,1.69,4.7,1.69
							C248.546,494.632,254.572,491.535,259.589,486.556z"/>
						<path fill="#662367" d="M268.785,557.648c1.101-2.294,0.429-5.314-1.89-8.51c-2.421-3.322-6.313-6.381-10.955-8.612
							c-4.282-2.061-8.802-3.195-12.708-3.195c-4.345,0-7.506,1.408-8.685,3.853c-2.363,4.905,3.41,12.587,12.85,17.121
							c4.276,2.061,8.792,3.195,12.704,3.195C264.44,561.501,267.606,560.099,268.785,557.648z M256.574,539.212
							c4.852,2.333,8.943,5.553,11.5,9.069c2.66,3.648,3.375,7.194,2.031,10c-1.437,2.977-5.081,4.682-10.005,4.682
							c-4.126,0-8.86-1.184-13.337-3.337c-10.346-4.974-16.284-13.347-13.537-19.075c1.432-2.971,5.081-4.681,10.005-4.681
							C247.358,535.87,252.092,537.059,256.574,539.212z"/>
						<path fill="#AF3A95" d="M256.335,512.592c1.155-3.775,0.799-6.854-0.999-8.661c-1.11-1.12-2.693-1.69-4.7-1.69
							c-4.681,0-10.707,3.093-15.724,8.076c-7.433,7.385-10.366,16.527-6.532,20.385c1.116,1.12,2.699,1.69,4.71,1.69
							c4.681,0,10.707-3.093,15.724-8.076C252.462,520.688,255.137,516.522,256.335,512.592z M249.842,525.354
							c-5.28,5.241-11.7,8.5-16.751,8.5c-2.377,0-4.37-0.73-5.748-2.119c-4.471-4.506-1.603-14.37,6.537-22.456
							c5.28-5.241,11.7-8.5,16.756-8.5c2.377,0,4.359,0.735,5.738,2.124c2.192,2.207,2.679,5.801,1.359,10.112
							C256.472,517.175,253.666,521.559,249.842,525.354z"/>
					</g>
					<g>
					</g>
				</g>
			</g>
		</g>
		<text transform="matrix(1 0 0 1 366.8428 562.0977)"><tspan x="0" y="0" fill="#92278D" font-family="'Comfortaa-Bold'" font-size="112.3184" letter-spacing="-8">Rubik</tspan><tspan x="282.249" y="0" fill="#662367" font-family="'Comfortaa-Bold'" font-size="112.3184" letter-spacing="-8">Pay</tspan></text>
		<rect x="434.033" y="567.945" fill="#FFFFFF" width="3" height="0"/>
	</g>
</g>
<g id="main_logo_x28_white_x29_" display="none">
	<g display="inline">
		<g>
			<g>
				<g id="XMLID_1_">
					<g>
						<path fill="#FFFFFF" d="M369.14,538.125c-5.908,0-12.114-6.464-14.744-15.368c-1.471-4.978-1.627-10.015-0.438-14.174
							c1.145-4.043,3.434-6.756,6.43-7.643c0.682-0.205,1.408-0.307,2.133-0.307c5.914,0,12.109,6.464,14.75,15.368
							c1.471,4.983,1.627,10.015,0.438,14.179c-1.155,4.043-3.434,6.756-6.425,7.638
							C370.586,538.023,369.875,538.125,369.14,538.125z"/>
						<path fill="#FFFFFF" d="M359.973,499.542c0.818-0.244,1.675-0.37,2.547-0.37c6.547,0,13.337,6.907,16.143,16.415
							c1.549,5.246,1.709,10.57,0.453,14.993c-1.301,4.54-3.936,7.609-7.418,8.641c-0.823,0.249-1.69,0.366-2.558,0.366
							c-6.542,0-13.332-6.902-16.147-16.416c-1.549-5.241-1.71-10.565-0.443-14.988C353.84,503.639,356.475,500.57,359.973,499.542z
							 M377.27,516.001c-2.64-8.904-8.836-15.368-14.75-15.368c-0.726,0-1.452,0.103-2.133,0.307c-2.996,0.886-5.285,3.6-6.43,7.643
							c-1.188,4.16-1.033,9.196,0.438,14.174c2.63,8.904,8.836,15.368,14.744,15.368c0.736,0,1.447-0.103,2.144-0.307
							c2.991-0.881,5.27-3.595,6.425-7.638C378.896,526.016,378.741,520.984,377.27,516.001z"/>
						<path fill="#FFFFFF" d="M344.313,558.798c-1.481-4.983-1.632-10.015-0.443-14.18c1.149-4.042,3.434-6.756,6.425-7.637
							c0.687-0.205,1.408-0.307,2.138-0.307c5.918,0,12.114,6.464,14.745,15.368c1.476,4.979,1.627,10.015,0.448,14.175
							c-1.154,4.043-3.439,6.756-6.43,7.643c-0.697,0.204-1.408,0.307-2.144,0.307C353.144,574.166,346.943,567.702,344.313,558.798
							z"/>
						<path fill="#FFFFFF" d="M352.432,536.674c-0.73,0-1.451,0.103-2.138,0.307c-2.991,0.881-5.275,3.595-6.425,7.637
							c-1.188,4.165-1.038,9.196,0.443,14.18c2.63,8.904,8.831,15.368,14.739,15.368c0.736,0,1.447-0.103,2.144-0.307
							c2.991-0.887,5.275-3.6,6.43-7.643c1.179-4.16,1.028-9.196-0.448-14.175C364.546,543.138,358.351,536.674,352.432,536.674z
							 M342.91,559.212c-1.554-5.246-1.715-10.57-0.448-14.993c1.291-4.54,3.926-7.608,7.418-8.641
							c0.828-0.244,1.686-0.366,2.552-0.366c6.547,0,13.332,6.903,16.143,16.416c1.554,5.241,1.715,10.565,0.453,14.988
							c-1.301,4.544-3.936,7.613-7.418,8.646c-0.823,0.239-1.686,0.365-2.558,0.365C352.505,575.627,345.72,568.725,342.91,559.212z
							"/>
						<path fill="#FFFFFF" d="M341.77,507.438c-5.46,0-11.871-4.651-15.947-11.583c-2.635-4.477-4.014-9.323-3.863-13.644
							c0.131-4.204,1.69-7.389,4.379-8.973c1.198-0.706,2.572-1.066,4.082-1.066c5.465,0,11.875,4.657,15.947,11.583
							c2.635,4.477,4.009,9.323,3.868,13.648c-0.136,4.204-1.695,7.39-4.389,8.973C344.648,507.083,343.285,507.438,341.77,507.438z
							"/>
						<path fill="#FFFFFF" d="M330.42,472.172c-1.51,0-2.884,0.36-4.082,1.066c-2.689,1.583-4.248,4.769-4.379,8.973
							c-0.151,4.32,1.228,9.167,3.863,13.644c4.077,6.932,10.487,11.583,15.947,11.583c1.515,0,2.879-0.355,4.077-1.062
							c2.694-1.583,4.252-4.769,4.389-8.973c0.142-4.325-1.232-9.172-3.868-13.648C342.296,476.829,335.886,472.172,330.42,472.172z
							 M324.565,496.595c-2.776-4.71-4.218-9.839-4.072-14.433c0.156-4.72,1.968-8.339,5.11-10.185
							c1.427-0.838,3.044-1.267,4.817-1.267c6.055,0,12.806,4.832,17.209,12.304c2.771,4.715,4.218,9.839,4.063,14.438
							c-0.146,4.72-1.963,8.339-5.105,10.185c-1.422,0.838-3.044,1.262-4.817,1.262
							C335.715,508.899,328.959,504.072,324.565,496.595z"/>
						<path fill="#FFFFFF" d="M329.948,544.351c-5.938,0-12.109-6.527-14.667-15.519c-1.422-4.993-1.524-10.029-0.297-14.179
							c1.193-4.033,3.502-6.722,6.508-7.575c0.667-0.19,1.354-0.287,2.065-0.287c5.933,0,12.109,6.527,14.662,15.519
							c2.903,10.2,0.112,19.956-6.206,21.759C331.341,544.253,330.654,544.351,329.948,544.351z"/>
						<path fill="#FFFFFF" d="M314.984,514.652c-1.227,4.15-1.125,9.187,0.297,14.179c2.557,8.992,8.729,15.519,14.667,15.519
							c0.707,0,1.393-0.098,2.065-0.282c6.317-1.803,9.109-11.559,6.206-21.759c-2.552-8.992-8.729-15.519-14.662-15.519
							c-0.711,0-1.398,0.097-2.065,0.287C318.486,507.93,316.177,510.619,314.984,514.652z M329.948,545.812
							c-6.576,0-13.342-6.97-16.074-16.581c-1.496-5.256-1.593-10.584-0.292-14.993c1.345-4.53,4.009-7.57,7.506-8.568
							c0.799-0.224,1.627-0.341,2.47-0.341c6.576,0,13.337,6.975,16.064,16.581c3.122,10.974-0.112,21.544-7.209,23.561
							C331.619,545.695,330.791,545.812,329.948,545.812z"/>
						<path fill="#FFFFFF" d="M297.297,578.589c10.38,4.126,17.063,11.899,14.905,17.326c-1.208,3.044-5.188,4.861-10.638,4.861
							c-3.804,0-7.983-0.862-12.095-2.499c-10.37-4.121-17.063-11.895-14.905-17.321c1.213-3.044,5.188-4.861,10.638-4.861
							C289.007,576.095,293.196,576.957,297.297,578.589z"/>
						<path fill="#FFFFFF" d="M311.511,571.336c1.208-3.04,5.188-4.856,10.638-4.856c3.804,0,7.983,0.862,12.095,2.494
							c10.37,4.126,17.053,11.899,14.9,17.326c-1.208,3.044-5.188,4.856-10.638,4.856c-3.81,0-7.989-0.862-12.09-2.494
							C316.036,584.536,309.348,576.767,311.511,571.336z"/>
						<path fill="#FFFFFF" d="M310.147,570.8c1.461-3.678,5.835-5.781,12.002-5.781c3.984,0,8.349,0.896,12.625,2.596
							c11.13,4.423,18.184,13.05,15.729,19.226c-1.466,3.673-5.831,5.777-11.997,5.777c-3.99,0-8.359-0.896-12.636-2.596
							C314.75,585.598,307.697,576.977,310.147,570.8z M311.511,571.336c-2.163,5.431,4.525,13.2,14.905,17.326
							c4.101,1.632,8.28,2.494,12.09,2.494c5.45,0,9.43-1.813,10.638-4.856c2.153-5.427-4.53-13.2-14.9-17.326
							c-4.111-1.632-8.291-2.494-12.095-2.494C316.699,566.479,312.719,568.296,311.511,571.336z"/>
						<path fill="#FFFFFF" d="M297.624,560.23c-10.127-2.704-17.102-9.592-15.568-15.358c1.082-4.034,6.245-6.64,13.176-6.64
							c2.596,0,5.275,0.366,7.969,1.082c4.968,1.33,9.333,3.697,12.275,6.678c2.85,2.879,4.014,5.962,3.293,8.68
							c-1.086,4.033-6.25,6.64-13.176,6.64C302.992,561.312,300.308,560.946,297.624,560.23z"/>
						<path fill="#FFFFFF" d="M282.66,531.808c-2.007,0-3.585-0.57-4.706-1.69c-3.829-3.858-0.901-13.006,6.527-20.385
							c5.017-4.983,11.042-8.076,15.733-8.076c2.007,0,3.585,0.57,4.7,1.69c1.798,1.807,2.153,4.881,0.999,8.656
							c-1.198,3.936-3.867,8.101-7.521,11.729C293.376,528.715,287.351,531.808,282.66,531.808z"/>
						<path fill="#FFFFFF" d="M288.189,493.405c-3.833-3.863-0.906-13.005,6.522-20.385c5.017-4.983,11.042-8.076,15.729-8.076
							c2.007,0,3.59,0.565,4.706,1.69c1.797,1.807,2.148,4.881,1.003,8.656c-1.198,3.936-3.873,8.096-7.536,11.729
							c-5.012,4.978-11.038,8.076-15.724,8.076C290.882,495.095,289.299,494.525,288.189,493.405z"/>
						<path fill="#FFFFFF" d="M310.439,464.944c-4.686,0-10.711,3.093-15.729,8.076c-7.428,7.379-10.355,16.522-6.522,20.385
							c1.11,1.121,2.693,1.69,4.7,1.69c4.686,0,10.711-3.098,15.724-8.076c3.663-3.634,6.337-7.793,7.536-11.729
							c1.145-3.775,0.794-6.849-1.003-8.656C314.029,465.509,312.446,464.944,310.439,464.944z M287.151,494.433
							c-4.477-4.506-1.603-14.369,6.532-22.45c5.28-5.246,11.7-8.5,16.756-8.5c2.377,0,4.359,0.73,5.738,2.119
							c2.202,2.207,2.679,5.802,1.369,10.117c-1.276,4.16-4.077,8.539-7.901,12.333c-5.28,5.246-11.7,8.505-16.756,8.505
							C290.512,496.557,288.53,495.821,287.151,494.433z"/>
						<path fill="#FFFFFF" d="M282.056,544.872c-1.534,5.767,5.441,12.654,15.568,15.358c2.684,0.716,5.368,1.081,7.969,1.081
							c6.927,0,12.09-2.606,13.176-6.64c0.721-2.718-0.443-5.801-3.293-8.68c-2.942-2.981-7.307-5.349-12.275-6.678
							c-2.694-0.716-5.373-1.082-7.969-1.082C288.301,538.232,283.138,540.838,282.056,544.872z M280.644,544.497
							c1.257-4.691,6.975-7.726,14.589-7.726c2.718,0,5.528,0.38,8.344,1.135c5.217,1.388,9.81,3.896,12.942,7.058
							c3.225,3.259,4.52,6.844,3.658,10.088c-1.252,4.691-6.98,7.721-14.584,7.721c-2.723,0-5.533-0.38-8.349-1.13
							C286.348,558.729,278.9,551.038,280.644,544.497z"/>
						<path fill="#FFFFFF" d="M268.744,551.398c4.642,2.231,8.534,5.29,10.955,8.612c2.318,3.195,2.991,6.216,1.89,8.51
							c-1.179,2.45-4.345,3.853-8.685,3.853c-3.912,0-8.427-1.135-12.704-3.195c-9.44-4.534-15.212-12.216-12.85-17.121
							c1.179-2.445,4.34-3.854,8.685-3.854C259.942,548.203,264.462,549.339,268.744,551.398z"/>
						<path fill="#FFFFFF" d="M282.66,533.269c-2.372,0-4.354-0.735-5.733-2.124c-4.477-4.506-1.607-14.365,6.527-22.451
							c5.285-5.241,11.7-8.5,16.761-8.5c2.372,0,4.354,0.731,5.733,2.119c2.197,2.211,2.679,5.801,1.369,10.117
							c-1.271,4.16-4.072,8.539-7.896,12.338C294.136,530.01,287.716,533.269,282.66,533.269z M284.482,509.732
							c-7.428,7.379-10.356,16.527-6.527,20.385c1.121,1.12,2.699,1.69,4.706,1.69c4.691,0,10.716-3.093,15.733-8.076
							c3.653-3.628,6.322-7.793,7.521-11.729c1.155-3.775,0.799-6.849-0.999-8.656c-1.115-1.121-2.693-1.69-4.7-1.69
							C295.524,501.656,289.499,504.75,284.482,509.732z"/>
						<path fill="#FFFFFF" d="M285.203,576.095c-5.45,0-9.425,1.817-10.638,4.861c-2.158,5.427,4.535,13.2,14.905,17.321
							c4.111,1.637,8.291,2.499,12.095,2.499c5.451,0,9.43-1.817,10.638-4.861c2.158-5.427-4.525-13.2-14.905-17.326
							C293.196,576.957,289.007,576.095,285.203,576.095z M288.934,599.637c-11.13-4.423-18.184-13.045-15.729-19.222
							c1.466-3.673,5.835-5.781,11.997-5.781c3.995,0,8.364,0.901,12.641,2.601c11.12,4.423,18.173,13.045,15.718,19.222
							c-1.456,3.672-5.835,5.781-11.997,5.781C297.575,602.237,293.211,601.341,288.934,599.637z"/>
						<path fill="#FFFFFF" d="M251.968,503.814c-3.833-3.857-0.911-13.005,6.522-20.385c5.017-4.983,11.042-8.076,15.724-8.076
							c2.007,0,3.59,0.57,4.71,1.69c1.797,1.807,2.148,4.88,0.999,8.655c-1.198,3.936-3.877,8.101-7.531,11.729
							c-5.017,4.978-11.042,8.076-15.724,8.076C254.662,505.504,253.079,504.935,251.968,503.814z"/>
						<path fill="#FFFFFF" d="M261.618,535.188c-5.017,4.983-11.042,8.076-15.724,8.076c-2.012,0-3.595-0.57-4.71-1.69
							c-3.833-3.858-0.901-13.001,6.532-20.385c5.017-4.983,11.042-8.076,15.724-8.076c2.007,0,3.59,0.57,4.7,1.69
							c1.797,1.807,2.153,4.886,0.999,8.661C267.94,527.395,265.266,531.56,261.618,535.188z"/>
						<path fill="#FFFFFF" d="M250.931,504.842c-4.481-4.505-1.603-14.369,6.532-22.45c5.275-5.246,11.695-8.5,16.751-8.5
							c2.377,0,4.364,0.731,5.743,2.119c2.197,2.211,2.674,5.801,1.364,10.117c-1.271,4.16-4.077,8.539-7.901,12.338
							c-5.275,5.241-11.695,8.5-16.751,8.5C254.292,506.966,252.304,506.23,250.931,504.842z M258.49,483.429
							c-7.433,7.379-10.355,16.527-6.522,20.385c1.11,1.121,2.693,1.69,4.7,1.69c4.681,0,10.707-3.098,15.724-8.076
							c3.653-3.629,6.333-7.793,7.531-11.729c1.149-3.775,0.799-6.848-0.999-8.655c-1.121-1.121-2.704-1.69-4.71-1.69
							C269.533,475.353,263.507,478.446,258.49,483.429z"/>
						<path fill="#FFFFFF" d="M246.03,551.423c1.432-2.971,5.081-4.681,10.005-4.681c4.126,0,8.86,1.188,13.342,3.342
							c4.852,2.333,8.943,5.553,11.5,9.069c2.66,3.648,3.375,7.194,2.031,10c-1.437,2.977-5.081,4.682-10.005,4.682
							c-4.126,0-8.86-1.184-13.337-3.337C249.221,565.524,243.283,557.151,246.03,551.423z M247.351,552.057
							c-2.363,4.905,3.41,12.587,12.85,17.121c4.276,2.061,8.792,3.195,12.704,3.195c4.34,0,7.506-1.402,8.685-3.853
							c1.101-2.294,0.429-5.314-1.89-8.51c-2.421-3.322-6.313-6.381-10.955-8.612c-4.281-2.06-8.802-3.195-12.708-3.195
							C251.69,548.203,248.529,549.611,247.351,552.057z"/>
						<path fill="#FFFFFF" d="M241.184,541.574c1.116,1.12,2.699,1.69,4.71,1.69c4.681,0,10.707-3.093,15.724-8.076
							c3.648-3.629,6.322-7.794,7.521-11.725c1.155-3.775,0.799-6.854-0.999-8.661c-1.11-1.121-2.693-1.69-4.7-1.69
							c-4.681,0-10.707,3.093-15.724,8.076C240.283,528.573,237.35,537.716,241.184,541.574z M246.683,520.151
							c5.28-5.241,11.7-8.5,16.756-8.5c2.377,0,4.359,0.735,5.738,2.124c2.192,2.207,2.679,5.801,1.359,10.112
							c-1.261,4.16-4.067,8.543-7.891,12.338c-5.28,5.241-11.7,8.5-16.751,8.5c-2.377,0-4.369-0.73-5.748-2.119
							C235.675,538.101,238.543,528.237,246.683,520.151z"/>
					</g>
					<g>
					</g>
				</g>
			</g>
		</g>
		
			<text transform="matrix(1 0 0 1 379.6475 572.9688)" fill="#FFFFFF" font-family="'Comfortaa-Bold'" font-size="112.3184" letter-spacing="-8">RubikPay</text>
		<rect x="446.837" y="578.817" fill="#FFFFFF" width="3" height="0"/>
	</g>
</g>
<g id="icon_logo" display="none">
	<g display="inline">
		<g>
			<g id="XMLID_2_">
				<g>
					<path fill="#92278D" d="M675.036,478.719c3.078,10.425,3.404,20.953,0.917,29.667c-2.415,8.458-7.185,14.135-13.442,15.979
						c-1.457,0.428-2.944,0.642-4.483,0.642c-12.362,0-25.346-13.534-30.849-32.153c-3.078-10.416-3.404-20.953-0.918-29.657
						c2.396-8.458,7.186-14.135,13.453-15.99c1.427-0.428,2.945-0.642,4.464-0.642C656.55,446.566,669.513,460.09,675.036,478.719z"
						/>
					<path fill="#92278D" d="M653.92,554.124c3.088,10.415,3.404,20.953,0.938,29.656c-2.415,8.458-7.194,14.135-13.452,15.989
						c-1.457,0.429-2.945,0.643-4.484,0.643c-12.361,0-25.335-13.523-30.838-32.153c-3.099-10.426-3.414-20.953-0.928-29.667
						c2.405-8.458,7.185-14.135,13.442-15.98c1.437-0.428,2.945-0.642,4.474-0.642C635.454,521.97,648.417,535.494,653.92,554.124z"
						/>
					<path fill="#92278D" d="M658.027,528.065c-13.687,0-27.894-14.441-33.784-34.354c-3.24-10.956-3.577-22.095-0.927-31.348
						c2.7-9.508,8.214-15.929,15.531-18.079c1.712-0.51,3.506-0.774,5.33-0.774c13.696,0,27.903,14.451,33.773,34.344
						c3.24,10.976,3.577,22.115,0.947,31.368c-2.721,9.498-8.234,15.919-15.521,18.079
						C661.655,527.82,659.841,528.065,658.027,528.065z M644.178,446.566c-1.519,0-3.037,0.214-4.464,0.642
						c-6.268,1.855-11.058,7.531-13.453,15.99c-2.486,8.704-2.16,19.241,0.918,29.657c5.503,18.619,18.486,32.153,30.849,32.153
						c1.539,0,3.026-0.214,4.483-0.642c6.258-1.844,11.027-7.521,13.442-15.979c2.487-8.713,2.161-19.241-0.917-29.667
						C669.513,460.09,656.55,446.566,644.178,446.566z"/>
					<path fill="#92278D" d="M610.384,411.253c5.513,9.366,8.387,19.506,8.092,28.556c-0.286,8.795-3.547,15.46-9.183,18.772
						c-2.507,1.478-5.36,2.222-8.53,2.222c-11.424,0-24.836-9.733-33.366-24.235c-5.513-9.366-8.397-19.506-8.081-28.545
						c0.275-8.795,3.536-15.46,9.162-18.772c2.507-1.478,5.381-2.232,8.54-2.232C588.452,387.019,601.863,396.762,610.384,411.253z"
						/>
					<path fill="#662367" d="M585.018,589.548c21.697,8.632,35.68,24.897,31.175,36.25c-2.527,6.37-10.854,10.161-22.258,10.161
						c-7.97,0-16.713-1.804-25.294-5.218c-21.718-8.632-35.71-24.887-31.186-36.25c2.528-6.359,10.854-10.161,22.258-10.161
						C567.672,584.33,576.416,586.134,585.018,589.548z"/>
					<path fill="#92278D" d="M642.271,602.705c-1.723,0.499-3.526,0.765-5.351,0.765c-13.696,0-27.893-14.441-33.773-34.345
						c-3.251-10.976-3.587-22.115-0.938-31.369c2.701-9.508,8.214-15.918,15.521-18.079c1.732-0.509,3.526-0.764,5.34-0.764
						c13.697,0,27.894,14.431,33.773,34.345c3.251,10.965,3.588,22.104,0.948,31.357
						C655.071,594.124,649.559,600.544,642.271,602.705z M654.857,583.78c2.467-8.703,2.15-19.241-0.938-29.656
						c-5.503-18.63-18.466-32.154-30.849-32.154c-1.528,0-3.037,0.214-4.474,0.642c-6.258,1.845-11.037,7.521-13.442,15.98
						c-2.486,8.713-2.171,19.241,0.928,29.667c5.503,18.63,18.477,32.153,30.838,32.153c1.539,0,3.027-0.214,4.484-0.643
						C647.663,597.915,652.442,592.238,654.857,583.78z"/>
					<path fill="#92278D" d="M593.334,491.917c6.073,21.34,0.234,41.753-12.984,45.524c-1.406,0.388-2.843,0.591-4.32,0.591
						c-12.424,0-25.336-13.656-30.687-32.479c-2.976-10.436-3.189-20.973-0.621-29.656c2.497-8.438,7.327-14.063,13.615-15.847
						c1.396-0.397,2.833-0.601,4.321-0.601C575.071,459.448,587.993,473.104,593.334,491.917z"/>
					<path fill="#92278D" d="M610.384,411.253c-8.521-14.492-21.932-24.234-33.366-24.234c-3.159,0-6.033,0.754-8.54,2.232
						c-5.626,3.312-8.887,9.977-9.162,18.772c-0.316,9.04,2.568,19.18,8.081,28.545c8.53,14.502,21.942,24.235,33.366,24.235
						c3.17,0,6.023-0.744,8.53-2.222c5.636-3.313,8.896-9.978,9.183-18.772C618.771,430.759,615.896,420.619,610.384,411.253z
						 M577.018,383.961c12.668,0,26.792,10.11,36.005,25.743c5.799,9.865,8.826,20.586,8.5,30.207
						c-0.306,9.875-4.107,17.447-10.681,21.31c-2.976,1.753-6.369,2.64-10.079,2.64c-12.667,0-26.803-10.1-35.995-25.743
						c-5.809-9.855-8.825-20.586-8.52-30.197c0.326-9.875,4.117-17.447,10.69-21.31
						C569.925,384.858,573.308,383.961,577.018,383.961z"/>
					<path fill="#662367" d="M545.751,541.466c5.962,6.023,8.397,12.475,6.889,18.161c-2.272,8.438-13.075,13.891-27.567,13.891
						c-5.442,0-11.057-0.765-16.672-2.263c-21.188-5.656-35.781-20.066-32.571-32.133c2.263-8.438,13.065-13.891,27.567-13.891
						c5.432,0,11.037,0.765,16.673,2.252C530.464,530.276,539.595,535.229,545.751,541.466z"/>
					<path fill="#AF3A95" d="M545.058,375.432c3.761,3.781,4.494,10.211,2.1,18.109c-2.507,8.235-8.102,16.938-15.766,24.541
						c-10.487,10.416-23.093,16.897-32.897,16.897c-4.199,0-7.511-1.192-9.834-3.536c-8.021-8.082-1.896-27.21,13.646-42.65
						c10.497-10.425,23.104-16.897,32.908-16.897C539.412,371.895,542.724,373.077,545.058,375.432z"/>
					<path fill="#92278D" d="M576.029,541.089c-13.759,0-27.914-14.583-33.631-34.69c-3.129-10.997-3.333-22.146-0.612-31.369
						c2.813-9.478,8.388-15.837,15.705-17.926c1.671-0.469,3.403-0.713,5.167-0.713c13.758,0,27.903,14.594,33.61,34.691
						c6.532,22.951-0.234,45.076-15.083,49.294C579.524,540.834,577.792,541.089,576.029,541.089z M545.343,505.552
						c5.351,18.823,18.263,32.479,30.687,32.479c1.478,0,2.914-0.204,4.32-0.591c13.219-3.771,19.058-24.184,12.984-45.524
						c-5.341-18.813-18.263-32.469-30.676-32.469c-1.488,0-2.925,0.204-4.321,0.601c-6.288,1.784-11.118,7.409-13.615,15.847
						C542.153,484.579,542.367,495.117,545.343,505.552z"/>
					<path fill="#662367" d="M507.717,609.666c21.718,8.632,35.7,24.896,31.185,36.25c-2.527,6.369-10.854,10.17-22.257,10.17
						c-7.959,0-16.704-1.804-25.305-5.228c-21.697-8.622-35.7-24.887-31.185-36.24c2.538-6.369,10.854-10.171,22.257-10.171
						C490.372,604.447,499.136,606.252,507.717,609.666z"/>
					<path fill="#662367" d="M559.713,584.33c-11.404,0-19.73,3.802-22.258,10.161c-4.525,11.363,9.468,27.618,31.186,36.25
						c8.581,3.414,17.324,5.218,25.294,5.218c11.404,0,19.73-3.791,22.258-10.161c4.505-11.353-9.478-27.618-31.175-36.25
						C576.416,586.134,567.672,584.33,559.713,584.33z M534.602,593.37c3.058-7.694,12.209-12.098,25.111-12.098
						c8.336,0,17.468,1.876,26.415,5.433c23.287,9.253,38.044,27.302,32.908,40.225c-3.068,7.684-12.199,12.087-25.102,12.087
						c-8.347,0-17.488-1.876-26.436-5.433C544.232,624.331,529.476,606.292,534.602,593.37z"/>
					<path fill="#AF3A95" d="M523.656,452.242c3.761,3.781,4.505,10.212,2.089,18.11c-2.507,8.234-8.092,16.948-15.735,24.541
						c-10.497,10.425-23.103,16.897-32.917,16.897c-4.199,0-7.5-1.203-9.845-3.537c-8.01-8.071-1.885-27.21,13.656-42.65
						c10.497-10.426,23.104-16.897,32.917-16.897C518.021,448.706,521.323,449.898,523.656,452.242z"/>
					<path fill="#AF3A95" d="M486.489,433.593c-9.366-9.427-3.353-30.064,13.667-46.971c11.047-10.976,24.479-17.784,35.058-17.784
						c4.973,0,9.121,1.529,12.005,4.433c4.606,4.617,5.604,12.138,2.863,21.167c-2.67,8.703-8.53,17.865-16.53,25.804
						c-11.047,10.976-24.479,17.794-35.058,17.794C493.521,438.036,489.374,436.497,486.489,433.593z M502.306,388.792
						c-15.542,15.44-21.666,34.569-13.646,42.65c2.323,2.344,5.635,3.536,9.834,3.536c9.804,0,22.41-6.481,32.897-16.897
						c7.664-7.603,13.259-16.306,15.766-24.541c2.395-7.898,1.661-14.329-2.1-18.109c-2.334-2.354-5.646-3.537-9.844-3.537
						C525.409,371.895,512.803,378.367,502.306,388.792z"/>
					<path fill="#662367" d="M470.896,570.796c4.851,6.686,6.258,13.005,3.955,17.805c-2.466,5.126-9.091,8.061-18.171,8.061
						c-8.184,0-17.631-2.374-26.579-6.685c-19.75-9.488-31.827-25.56-26.884-35.822c2.466-5.116,9.08-8.062,18.171-8.062
						c8.173,0,17.63,2.375,26.588,6.686C457.689,557.446,465.832,563.846,470.896,570.796z"/>
					<path fill="#662367" d="M503.396,525.231c-14.502,0-25.305,5.453-27.567,13.891c-3.21,12.066,11.384,26.477,32.571,32.133
						c5.615,1.498,11.23,2.263,16.672,2.263c14.492,0,25.294-5.452,27.567-13.891c1.509-5.687-0.927-12.138-6.889-18.161
						c-6.156-6.237-15.287-11.189-25.682-13.982C514.434,525.996,508.828,525.231,503.396,525.231z M472.874,538.337
						c2.629-9.814,14.594-16.163,30.523-16.163c5.687,0,11.567,0.795,17.458,2.375c10.915,2.894,20.525,8.153,27.078,14.757
						c6.747,6.828,9.458,14.329,7.653,21.116c-2.619,9.814-14.604,16.153-30.512,16.153c-5.697,0-11.577-0.795-17.467-2.365
						C484.808,568.116,469.225,552.024,472.874,538.337z"/>
					<path fill="#AF3A95" d="M469.276,397.21c3.76,3.781,4.494,10.211,2.089,18.11c-2.507,8.234-8.112,16.948-15.756,24.541
						c-10.497,10.415-23.104,16.897-32.897,16.897c-4.199,0-7.511-1.192-9.834-3.537c-8.021-8.071-1.906-27.21,13.646-42.65
						c10.497-10.426,23.104-16.897,32.897-16.897C463.62,393.674,466.932,394.866,469.276,397.21z"/>
					<path fill="#AF3A95" d="M480.904,465.603c-15.542,15.439-21.667,34.579-13.656,42.65c2.344,2.334,5.646,3.537,9.845,3.537
						c9.814,0,22.421-6.472,32.917-16.897c7.644-7.592,13.229-16.306,15.735-24.541c2.416-7.898,1.671-14.329-2.089-18.11
						c-2.333-2.344-5.636-3.536-9.834-3.536C504.008,448.706,491.401,455.177,480.904,465.603z M465.098,510.403
						c-9.366-9.427-3.363-30.054,13.656-46.971c11.058-10.965,24.479-17.783,35.068-17.783c4.963,0,9.111,1.528,11.995,4.433
						c4.596,4.626,5.605,12.138,2.864,21.167c-2.66,8.703-8.52,17.865-16.52,25.814c-11.057,10.966-24.489,17.773-35.068,17.773
						C472.13,514.836,467.982,513.308,465.098,510.403z"/>
					<path fill="#662367" d="M490.219,653.701c-23.287-9.253-38.044-27.292-32.907-40.214c3.067-7.685,12.209-12.097,25.101-12.097
						c8.357,0,17.499,1.885,26.446,5.441c23.267,9.254,38.023,27.292,32.887,40.215c-3.047,7.684-12.209,12.097-25.101,12.097
						C508.298,659.144,499.167,657.269,490.219,653.701z M460.155,614.618c-4.515,11.354,9.488,27.618,31.185,36.24
						c8.601,3.424,17.345,5.228,25.305,5.228c11.404,0,19.73-3.801,22.257-10.17c4.515-11.354-9.467-27.618-31.185-36.25
						c-8.581-3.414-17.345-5.219-25.305-5.219C471.009,604.447,462.693,608.249,460.155,614.618z"/>
					<path fill="#AF3A95" d="M446.713,476.212c3.761,3.781,4.504,10.222,2.089,18.12c-2.507,8.224-8.102,16.938-15.735,24.53
						c-10.497,10.425-23.103,16.897-32.897,16.897c-4.209,0-7.521-1.192-9.855-3.537c-8.021-8.082-1.885-27.2,13.667-42.65
						c10.497-10.426,23.104-16.897,32.897-16.897C441.077,472.676,444.39,473.868,446.713,476.212z"/>
					<path fill="#AF3A95" d="M412.878,453.221c2.323,2.344,5.636,3.537,9.834,3.537c9.793,0,22.4-6.482,32.897-16.897
						c7.644-7.593,13.249-16.306,15.756-24.541c2.405-7.898,1.671-14.329-2.089-18.11c-2.344-2.344-5.656-3.536-9.855-3.536
						c-9.793,0-22.4,6.471-32.897,16.897C410.973,426.01,404.858,445.149,412.878,453.221z M424.374,408.4
						c11.037-10.976,24.469-17.784,35.047-17.784c4.973,0,9.131,1.529,12.016,4.433c4.596,4.627,5.595,12.138,2.854,21.167
						c-2.66,8.703-8.53,17.865-16.53,25.814c-11.037,10.966-24.469,17.784-35.047,17.784c-4.973,0-9.131-1.539-12.005-4.443
						C401.332,445.944,407.354,425.307,424.374,408.4z"/>
					<path fill="#662367" d="M421.388,546.093c-9.091,0-15.705,2.945-18.171,8.062c-4.943,10.263,7.134,26.334,26.884,35.822
						c8.948,4.311,18.395,6.685,26.579,6.685c9.08,0,15.705-2.935,18.171-8.061c2.303-4.8,0.896-11.119-3.955-17.805
						c-5.065-6.95-13.208-13.35-22.92-18.018C439.019,548.468,429.561,546.093,421.388,546.093z M400.455,552.829
						c2.997-6.217,10.629-9.794,20.933-9.794c8.632,0,18.538,2.487,27.914,6.991c10.15,4.882,18.711,11.618,24.061,18.977
						c5.564,7.633,7.063,15.052,4.25,20.922c-3.006,6.228-10.629,9.794-20.933,9.794c-8.632,0-18.538-2.477-27.904-6.98
						C407.13,582.333,394.708,564.814,400.455,552.829z"/>
					<path fill="#AF3A95" d="M435.217,521.033c-11.047,10.966-24.479,17.784-35.047,17.784c-4.973,0-9.142-1.529-12.025-4.433
						c-9.355-9.437-3.353-30.064,13.676-46.981c11.047-10.966,24.479-17.784,35.058-17.784c4.974,0,9.121,1.539,12.005,4.443
						c4.586,4.617,5.605,12.138,2.843,21.157C449.087,503.922,443.217,513.083,435.217,521.033z M400.17,535.759
						c9.794,0,22.4-6.472,32.897-16.897c7.633-7.593,13.229-16.306,15.735-24.53c2.415-7.898,1.671-14.339-2.089-18.12
						c-2.323-2.344-5.636-3.536-9.834-3.536c-9.793,0-22.4,6.471-32.897,16.897c-15.552,15.45-21.687,34.568-13.667,42.65
						C392.649,534.567,395.961,535.759,400.17,535.759z"/>
				</g>
				<g>
				</g>
			</g>
		</g>
	</g>
</g>
</svg>
